# xmcd
#
# Track frame offsets: 
#        150
#        3839
#        15559
#        29991
#        41420
#        50920
#        60997
#        71741
#        84733
#        98245
#        111270
#        127247
#        141586
#        150676
#        164188
#        174490
#        189017
#        210004
#
# Disc length: 3143 seconds
#
# Revision: 5
# Processed by: cddbd v1.4PL0 Copyright (c) Steve Scherf et al.
# Submitted via: ExactAudioCopy v0.90b4
#
DISCID=fe0c4512
DTITLE=Pennywise - Live At The Key Club
DYEAR=2000
DGENRE=Punk Rock
TTITLE0=Unknown Road (intro)
TTITLE1=Wouldn't It Be Nice
TTITLE2=Living For Today
TTITLE3=Final Chapters
TTITLE4=Can't Believe It
TTITLE5=Unknown Road
TTITLE6=Homesick
TTITLE7=No Reason Why
TTITLE8=Fight Till You Die
TTITLE9=Peaceful Day
TTITLE10=Society
TTITLE11=Straight Ahead
TTITLE12=Pennywise
TTITLE13=Perfect People
TTITLE14=Minor Threat
TTITLE15=Same Old Story
TTITLE16=Alien
TTITLE17=Bro Hymn
EXTD=
EXTT0=
EXTT1=
EXTT2=
EXTT3=
EXTT4=
EXTT5=
EXTT6=
EXTT7=
EXTT8=
EXTT9=
EXTT10=
EXTT11=
EXTT12=
EXTT13=
EXTT14=
EXTT15=
EXTT16=
EXTT17=
PLAYORDER=
